<?xml version="1.0" encoding="utf-8"?>
<!-- Generator: Adobe Illustrator 21.1.0, SVG Export Plug-In . SVG Version: 6.00 Build 0)  -->
<svg version="1.1" id="Layer_1" xmlns="http://www.w3.org/2000/svg" xmlns:xlink="http://www.w3.org/1999/xlink" x="0px" y="0px"
	 viewBox="0 0 720 207.5" style="enable-background:new 0 0 720 207.5;" xml:space="preserve">
<style type="text/css">
	.st0{fill:none;stroke:#00ADEE;stroke-width:2.1055;}
	.st1{fill:none;stroke:#00ADEE;stroke-width:0.851;stroke-linecap:round;stroke-linejoin:round;stroke-dasharray:0.4287,3.4041;}
	.st2{fill:none;stroke:#00ADEE;stroke-width:0.851;stroke-linecap:round;stroke-linejoin:round;stroke-dasharray:0.4476,3.423;}
	.st3{fill:none;stroke:#00ADEE;stroke-width:3;stroke-linecap:round;stroke-linejoin:round;}
	.st4{fill:none;stroke:#231F20;stroke-width:5;stroke-linecap:round;stroke-linejoin:round;}
</style>
<line class="st0" x1="701.4" y1="190.2" x2="20.1" y2="190.2"/>
<line class="st0" x1="701.4" y1="19.9" x2="20.1" y2="19.9"/>
<line class="st1" x1="20.1" y1="147.6" x2="701.4" y2="147.6"/>
<line class="st1" x1="20.1" y1="105" x2="701.4" y2="105"/>
<line class="st1" x1="20.1" y1="62.4" x2="701.4" y2="62.4"/>
<line class="st2" x1="62.6" y1="190.1" x2="62.6" y2="19.7"/>
<line class="st2" x1="105.2" y1="190.1" x2="105.2" y2="19.7"/>
<line class="st2" x1="147.8" y1="190.1" x2="147.8" y2="19.9"/>
<line class="st2" x1="233" y1="190.1" x2="233" y2="19.9"/>
<line class="st2" x1="275.6" y1="190.1" x2="275.6" y2="19.9"/>
<line class="st2" x1="318.2" y1="190.1" x2="318.2" y2="19.9"/>
<line class="st2" x1="403.3" y1="190.1" x2="403.3" y2="19.9"/>
<line class="st2" x1="445.9" y1="190.1" x2="445.9" y2="19.9"/>
<line class="st2" x1="488.5" y1="190.1" x2="488.5" y2="19.9"/>
<line class="st2" x1="573.7" y1="190.1" x2="573.7" y2="19.9"/>
<line class="st2" x1="616.3" y1="190.1" x2="616.3" y2="19.9"/>
<line class="st2" x1="658.8" y1="190.1" x2="658.8" y2="19.9"/>
<line class="st0" x1="190.4" y1="190.1" x2="190.4" y2="19.8"/>
<line class="st0" x1="20.1" y1="190.1" x2="20.1" y2="19.8"/>
<line class="st0" x1="360.7" y1="190.1" x2="360.7" y2="19.8"/>
<line class="st0" x1="531.1" y1="190.1" x2="531.1" y2="19.8"/>
<line class="st0" x1="701.4" y1="190.1" x2="701.4" y2="19.8"/>
<polyline class="st3" points="221.9,83.1 236.9,70 251.9,83.1 "/>
<path class="st3" d="M228.7,105.6c17.8,0,32.8,16.9,32.8,42.3c0,25.3-15,42.2-32.8,42.2c-18.8,0-35.7-15.9-35.7-41.3
	S209.9,105.6,228.7,105.6z"/>
<path class="st3" d="M261.5,105.6V176v0.9c0.9,9.4,3.7,13.1,11.3,13.1c19.7,0.9,32.5-29.8,35.9-40.6"/>
<path class="st3" d="M442.2,149.7c-5.6,13.1-16.9,40.3-34.7,40.3c-14.1-0.9-14.1-23.5-14.1-30.9v-54.4"/>
<path class="st3" d="M393.4,113.1c-0.9,12.2-1.9,20.3-7.5,36.6c-8,23.1-24.4,40.3-39.4,40.3c-18.8-0.9-20.6-23.5-20.6-30.9V105
	c-5.7,16.9-10,25.6-16.9,43.6"/>
<polyline class="st4" points="221.9,83.1 236.9,70 251.9,83.1 "/>
<path class="st4" d="M228.7,105.6c17.8,0,32.8,16.9,32.8,42.3c0,25.3-15,42.2-32.8,42.2c-18.8,0-35.7-15.9-35.7-41.3
	S209.9,105.6,228.7,105.6z"/>
<path class="st4" d="M261.5,105.6V176v0.9c0.9,9.4,3.7,13.1,11.3,13.1c19.7,0.9,32.5-29.8,35.9-40.6"/>
<path class="st4" d="M442.2,149.7c-5.6,13.1-16.9,40.3-34.7,40.3c-14.1-0.9-14.1-23.5-14.1-30.9v-54.4"/>
<path class="st4" d="M393.4,113.1c-0.9,12.2-1.9,20.3-7.5,36.6c-8,23.1-24.4,40.3-39.4,40.3c-18.8-0.9-20.6-23.5-20.6-30.9V105
	c-5.7,16.9-10,25.6-16.9,43.6"/>
</svg>
