<?xml version="1.0" encoding="utf-8"?>
<!-- Generator: Adobe Illustrator 21.1.0, SVG Export Plug-In . SVG Version: 6.00 Build 0)  -->
<svg version="1.1" id="Layer_1" xmlns="http://www.w3.org/2000/svg" xmlns:xlink="http://www.w3.org/1999/xlink" x="0px" y="0px"
	 viewBox="0 0 1286 450" style="enable-background:new 0 0 1286 450;" xml:space="preserve">
<style type="text/css">
	.st0{fill:none;stroke:#00ADEE;stroke-width:3;}
	.st1{fill:none;stroke:#00ADEE;stroke-width:1.5035;stroke-linecap:round;stroke-linejoin:round;stroke-dasharray:0.7573,6.0139;}
	.st2{fill:none;stroke:#00ADEE;stroke-width:1.5035;stroke-linecap:round;stroke-linejoin:round;stroke-dasharray:0.7907,6.0473;}
	.st3{fill:none;stroke:#231F20;stroke-width:6;stroke-linecap:round;stroke-linejoin:round;}
</style>
<path class="st0" d="M39.4,415.5 M1243.8,114.6H39.4"/>
<polygon class="st0" points="39.4,415.3 1243.8,415.5 1243.8,37 39.4,37 "/>
<line class="st1" x1="39.4" y1="340.3" x2="1243.8" y2="340.3"/>
<line class="st1" x1="39.4" y1="265" x2="1243.8" y2="265"/>
<line class="st1" x1="39.4" y1="189.8" x2="1243.8" y2="189.8"/>
<line class="st2" x1="114.6" y1="415.3" x2="114.6" y2="36.5"/>
<line class="st2" x1="189.9" y1="415.3" x2="189.9" y2="36.5"/>
<line class="st2" x1="265.1" y1="415.3" x2="265.1" y2="36.9"/>
<line class="st2" x1="415.6" y1="415.3" x2="415.6" y2="36.9"/>
<line class="st2" x1="490.8" y1="415.3" x2="490.8" y2="36.9"/>
<line class="st2" x1="566" y1="415.3" x2="566" y2="36.9"/>
<line class="st2" x1="716.5" y1="415.3" x2="716.5" y2="36.9"/>
<line class="st2" x1="791.7" y1="415.3" x2="791.7" y2="36.9"/>
<line class="st2" x1="867" y1="415.3" x2="867" y2="36.9"/>
<line class="st2" x1="1017.4" y1="415.3" x2="1017.4" y2="36.9"/>
<line class="st2" x1="1092.7" y1="415.3" x2="1092.7" y2="36.9"/>
<line class="st2" x1="1167.9" y1="415.3" x2="1167.9" y2="36.9"/>
<line class="st0" x1="340.3" y1="415.3" x2="340.3" y2="36.9"/>
<line class="st0" x1="641.3" y1="415.3" x2="641.3" y2="36.9"/>
<line class="st0" x1="942.2" y1="415.3" x2="942.2" y2="36.9"/>
<path class="st3" d="M578.7,266.9c31.3,0,57.7,29.7,57.7,74.3c0,44.5-26.4,74.2-57.7,74.2c-33,0-61.1-28-61.1-72.6
	C517.6,298.3,545.6,266.9,578.7,266.9z"/>
<path class="st3" d="M636.4,266.9v123.8v1.7c1.7,16.5,8.2,23.1,19.8,23.1c36.3,1.6,51.2-54.4,57.8-74.2"/>
<path class="st3" d="M774,266.9c33,0,59.4,33.1,59.4,74.3c0,41.2-26.4,74.2-59.4,74.2c-33,0-59.4-33-59.4-74.2
	C714.6,300,741,266.9,774,266.9z"/>
</svg>
