<?xml version="1.0" encoding="utf-8"?>
<!-- Generator: Adobe Illustrator 21.1.0, SVG Export Plug-In . SVG Version: 6.00 Build 0)  -->
<svg version="1.1" id="Layer_1" xmlns="http://www.w3.org/2000/svg" xmlns:xlink="http://www.w3.org/1999/xlink" x="0px" y="0px"
	 viewBox="0 0 720 207.5" style="enable-background:new 0 0 720 207.5;" xml:space="preserve">
<style type="text/css">
	.st0{fill:none;stroke:#00AEEF;stroke-width:0.6884;}
	.st1{fill:none;stroke:#00AEEF;stroke-width:1.3591;}
	.st2{fill:none;stroke:#00AEEF;stroke-width:0.9592;}
	.st3{fill:none;stroke:#00AEEF;stroke-width:1.688;stroke-linecap:round;}
	.st4{fill:none;stroke:#282829;stroke-width:4.6831;stroke-linecap:round;stroke-linejoin:round;stroke-miterlimit:10;}
</style>
<g>
	<line class="st0" x1="19.9" y1="127.6" x2="690.2" y2="127.6"/>
	<line class="st0" x1="19.9" y1="103.5" x2="690.2" y2="103.5"/>
	<line class="st0" x1="19.9" y1="79.5" x2="690.2" y2="79.5"/>
	<line class="st1" x1="19.9" y1="54.2" x2="690.4" y2="54.2"/>
	<line class="st2" x1="116.2" y1="151.7" x2="116.2" y2="54.2"/>
	<line class="st2" x1="212" y1="151.7" x2="212" y2="54.2"/>
	<line class="st2" x1="20.3" y1="152.3" x2="20.3" y2="54.2"/>
	<line class="st2" x1="307.8" y1="151.7" x2="307.8" y2="54.2"/>
	<line class="st2" x1="403.3" y1="151.7" x2="403.3" y2="54.2"/>
	<line class="st2" x1="499.1" y1="151.7" x2="499.1" y2="54.2"/>
	<line class="st2" x1="594.8" y1="151.7" x2="594.8" y2="54.3"/>
	<polyline class="st1" points="19.9,151.6 690.2,151.6 690.4,151.6 690.4,54.2 	"/>
</g>
<line class="st3" x1="442.3" y1="87.3" x2="426.8" y2="79"/>
<line class="st4" x1="442.3" y1="87.3" x2="426.8" y2="79"/>
<path class="st3" d="M307.9,151.1V120c0-12.4-4.3-16.8-11.4-15.1c-5.9,1.1-12.4,6.5-14.1,8.6"/>
<path class="st3" d="M307.9,134.9c0.5-1.1,0.5-2.2,1.1-3.2c3.2-8.6,12.4-27.8,24.9-27.3c9.7,0,12.4,7.6,12.4,14.6v32.1"/>
<path class="st3" d="M462,129.2c-9.1,17.7-21.2,22.2-29.5,21.6c-1-0.1-2.6-0.4-3.6-0.8c-9.4-3.6-14.9-13-14.3-22.2
	c0-10.2,7.2-21,17.9-23c10.2-2,20.5,10.2,4.6,21.5c-4.5,3.6-16.7,12.4-26.5,18.5c-7,4.4-11.4,6.3-15.6,6.4c-7.2,0.2-10-3.8-10.3-14
	c-0.1-4.7,0-17.3,0-17.3v-0.5c0-7-3.2-15.1-13-15.1c-12.4-0.5-21.1,18.4-24.3,27c-0.5,1.1-1.1,2.2-1.1,3.8"/>
<path class="st4" d="M307.9,149.8v-28.5c0-12.4-4.3-16.8-11.4-15.1c-5.9,1.1-12.4,6.5-14.1,8.6"/>
<path class="st4" d="M307.9,134.9c0.5-1.1,0.5-2.2,1.1-3.2c3.2-8.6,12.4-26.5,24.9-26c9.7,0,12.4,7.6,12.4,14.6v29.5"/>
<path class="st4" d="M462,129.2c-9.1,17.7-21.2,20.9-29.5,20.3c-1-0.1-2.6-0.4-3.6-0.8c-9.4-3.6-14.3-11.8-14.3-19.7
	c0-10.2,7.2-21,17.9-23c10.2-2,20.5,9,4.6,20.3c-4.5,3.6-16.7,12.4-26.5,18.5c-7,4.4-11.4,5-15.6,5.1c-7.2,0.2-10-3.8-10.3-14
	c-0.1-4.7,0-14.5,0-14.5v-0.5c0-7-3.2-15.1-13-15.1c-12.4-0.5-21.1,16.9-24.3,25.5c-0.5,1.1-1.1,2.2-1.1,3.8"/>
<path class="st3" d="M480.5,104.2c10.2,0,18.4,10.8,18.4,23.6s-8.2,23.1-18.4,23.1c-9.7,0-18.4-10.2-18.4-23.1
	S470.8,104.2,480.5,104.2z"/>
<path class="st4" d="M491.5,110.8c3.8,4.1,6.2,10.2,6.2,17c0,12-7.7,21.6-17.2,21.6c-9.1,0-17.2-9.6-17.2-21.6
	c-0.1-12,8.1-22.1,17.2-22.1c4,0,7.6,1.7,10.5,4.6"/>
</svg>
