<?xml version="1.0" encoding="utf-8"?>
<!-- Generator: Adobe Illustrator 21.1.0, SVG Export Plug-In . SVG Version: 6.00 Build 0)  -->
<svg version="1.1" id="Layer_1" xmlns="http://www.w3.org/2000/svg" xmlns:xlink="http://www.w3.org/1999/xlink" x="0px" y="0px"
	 viewBox="0 0 720 207.5" style="enable-background:new 0 0 720 207.5;" xml:space="preserve">
<style type="text/css">
	.st0{fill:none;stroke:#00AEEF;stroke-width:0.6884;}
	.st1{fill:none;stroke:#00AEEF;stroke-width:1.3591;}
	.st2{fill:none;stroke:#00AEEF;stroke-width:0.9592;}
	.st3{fill:none;stroke:#00AEEF;stroke-width:1.688;stroke-linecap:round;}
	.st4{fill:none;stroke:#282829;stroke-width:4.6831;stroke-linecap:round;stroke-linejoin:round;stroke-miterlimit:10;}
	.st5{fill:none;stroke:#282829;stroke-width:5;stroke-linecap:round;stroke-linejoin:round;stroke-miterlimit:10;}
</style>
<g>
	<line class="st0" x1="20" y1="128.2" x2="690.3" y2="128.2"/>
	<line class="st0" x1="20" y1="104.1" x2="690.3" y2="104.1"/>
	<line class="st0" x1="20" y1="80.1" x2="690.3" y2="80.1"/>
	<line class="st1" x1="20" y1="54.8" x2="690.5" y2="54.8"/>
	<line class="st2" x1="116.3" y1="152.3" x2="116.3" y2="54.8"/>
	<line class="st2" x1="212.1" y1="152.3" x2="212.1" y2="54.8"/>
	<line class="st2" x1="20.4" y1="152.9" x2="20.4" y2="54.8"/>
	<line class="st2" x1="307.9" y1="152.3" x2="307.9" y2="54.8"/>
	<line class="st2" x1="403.4" y1="152.3" x2="403.4" y2="54.8"/>
	<line class="st2" x1="499.2" y1="152.3" x2="499.2" y2="54.8"/>
	<line class="st2" x1="594.9" y1="152.3" x2="594.9" y2="54.9"/>
	<polyline class="st1" points="20,152.2 690.3,152.2 690.5,152.2 690.5,54.8 	"/>
</g>
<path class="st3" d="M374.6,105c10.2,0,18.4,10.8,18.4,23.6s-8.2,23.1-18.4,23.1c-9.7,0-18.4-10.2-18.4-23.1S364.9,105,374.6,105z"
	/>
<path class="st3" d="M356.2,129.9c-9.1,17.7-21.2,22.2-29.5,21.6c-1-0.1-2.6-0.4-3.6-0.8c-9.4-3.6-14.9-13-14.3-22.2
	c0-10.2,7.2-21,17.9-23c10.2-2,20.5,10.2,4.6,21.5c-4.5,3.6-17,12-26.5,18.5"/>
<path class="st4" d="M386.8,113c3.1,4,5,9.6,5,15.6c0,12-7.7,21.6-17.2,21.6c-9.1,0-17.2-9.6-17.2-21.6c0-12.1,8.1-22.1,17.2-22.1
	c4.6,0,8.8,2.4,11.9,6.2"/>
<path class="st5" d="M356.2,129.9c-9.1,17.7-21.2,20.9-29.5,20.3c-1-0.1-2.6-0.4-3.6-0.8c-9.4-3.6-13.7-11.7-13.1-20.9
	c0-10.2,6-19.6,16.7-21.6c10.2-2,20.5,8.8,4.6,20.1c-4.5,3.6-17,12-26.5,18.5"/>
</svg>
