<?xml version="1.0" encoding="utf-8"?>
<!-- Generator: Adobe Illustrator 21.1.0, SVG Export Plug-In . SVG Version: 6.00 Build 0)  -->
<svg version="1.1" id="Layer_1" xmlns="http://www.w3.org/2000/svg" xmlns:xlink="http://www.w3.org/1999/xlink" x="0px" y="0px"
	 viewBox="0 0 720 207.5" style="enable-background:new 0 0 720 207.5;" xml:space="preserve">
<style type="text/css">
	.st0{fill:none;stroke:#00AEEF;stroke-width:0.6884;}
	.st1{fill:none;stroke:#00AEEF;stroke-width:1.3591;}
	.st2{fill:none;stroke:#00AEEF;stroke-width:0.9592;}
	.st3{fill:none;stroke:#00AEEF;stroke-width:1.6938;stroke-linecap:round;}
	.st4{fill:none;stroke:#00AEEF;stroke-width:1.691;stroke-linecap:round;}
	.st5{fill:none;stroke:#00AEEF;stroke-width:1.6885;stroke-linecap:round;}
	.st6{fill:none;stroke:#282829;stroke-width:5;stroke-linecap:round;stroke-linejoin:round;stroke-miterlimit:10;}
	.st7{fill:none;stroke:#282829;stroke-width:4.682;stroke-linecap:round;stroke-linejoin:round;stroke-miterlimit:10;}
</style>
<g>
	<line class="st0" x1="20" y1="128.8" x2="690.3" y2="128.8"/>
	<line class="st0" x1="20" y1="104.7" x2="690.3" y2="104.7"/>
	<line class="st0" x1="20" y1="80.7" x2="690.3" y2="80.7"/>
	<line class="st1" x1="20" y1="55.4" x2="690.5" y2="55.4"/>
	<line class="st2" x1="116.3" y1="152.9" x2="116.3" y2="55.4"/>
	<line class="st2" x1="212.1" y1="152.9" x2="212.1" y2="55.4"/>
	<line class="st2" x1="20.4" y1="153.5" x2="20.4" y2="55.4"/>
	<line class="st2" x1="307.9" y1="152.9" x2="307.9" y2="55.4"/>
	<line class="st2" x1="403.4" y1="152.9" x2="403.4" y2="55.4"/>
	<line class="st2" x1="499.2" y1="152.9" x2="499.2" y2="55.4"/>
	<line class="st2" x1="594.9" y1="152.9" x2="594.9" y2="55.4"/>
	<polyline class="st1" points="20,152.8 690.3,152.8 690.5,152.8 690.5,55.4 	"/>
</g>
<g>
	<path class="st3" d="M358,105.2v29.9c0,4.2,0,16.9,7.9,17.5c7.9,0,13.1-9,17.8-21.7"/>
	<path class="st4" d="M262.4,105.2c10.5,0,18.9,9.5,18.9,23.8s-8.4,23.8-18.9,23.8c-10,0-19.4-9-19.4-23.3
		C243.1,114.7,252.5,105.2,262.4,105.2z"/>
	<path class="st5" d="M281.3,105.3v39.4v0.5c0,5.3,2.1,6.9,5.8,7.4c10,0.5,15.9-9.1,21.6-20.7c5.8-11,8.6-18.9,11.4-26.8v30.1
		c0,4.2,1.1,16.8,11.5,17.4c8.4,0,16.8-10,22.1-22.7c1.6-3.7,4.3-17.6,4.3-24.3"/>
</g>
<g>
	<path class="st6" d="M358,107v26.3c0,4.2,0,16.9,7.9,17.5c7.9,0,13.1-7.2,17.8-19.9"/>
	<path class="st7" d="M277.9,117.8c1.4,3.2,2.2,6.9,2.2,11.1c0,13.4-7.9,22.3-17.7,22.3c-9.3,0-18.1-8.4-18.1-21.8
		c0-13.8,8.9-22.7,18.1-22.7c6.6,0,12.4,4.1,15.4,10.8"/>
	<path class="st6" d="M281.3,106.9v36v0.5c0,5.3,2.1,6.9,5.8,7.4c10,0.5,15.9-7.3,21.6-18.9c5.8-11,8.6-17.1,11.4-25v26.5
		c0,4.2,1.1,16.8,11.5,17.4c8.4,0,16.8-8.2,22.1-20.9c2.1-5.8,4.3-15.8,4.3-22.5"/>
</g>
</svg>
