<?xml version="1.0" encoding="utf-8"?>
<!-- Generator: Adobe Illustrator 21.1.0, SVG Export Plug-In . SVG Version: 6.00 Build 0)  -->
<svg version="1.1" id="Layer_1" xmlns="http://www.w3.org/2000/svg" xmlns:xlink="http://www.w3.org/1999/xlink" x="0px" y="0px"
	 viewBox="0 0 1286 450" style="enable-background:new 0 0 1286 450;" xml:space="preserve">
<style type="text/css">
	.st0{fill:none;stroke:#00ADEE;stroke-width:3;}
	.st1{fill:none;stroke:#00ADEE;stroke-width:1.5035;stroke-linecap:round;stroke-linejoin:round;stroke-dasharray:0.7573,6.0139;}
	.st2{fill:none;stroke:#00ADEE;stroke-width:1.5035;stroke-linecap:round;stroke-linejoin:round;stroke-dasharray:0.7907,6.0473;}
	.st3{fill:none;stroke:#231F20;stroke-width:6;stroke-linecap:round;}
</style>
<path class="st0" d="M39.4,415.5 M1243.8,114.6H39.4"/>
<polygon class="st0" points="39.4,415.3 1243.8,415.5 1243.8,37 39.4,37 "/>
<line class="st1" x1="39.4" y1="340.3" x2="1243.8" y2="340.3"/>
<line class="st1" x1="39.4" y1="265" x2="1243.8" y2="265"/>
<line class="st1" x1="39.4" y1="189.8" x2="1243.8" y2="189.8"/>
<line class="st2" x1="114.6" y1="415.3" x2="114.6" y2="36.5"/>
<line class="st2" x1="189.9" y1="415.3" x2="189.9" y2="36.5"/>
<line class="st2" x1="265.1" y1="415.3" x2="265.1" y2="36.9"/>
<line class="st2" x1="415.6" y1="415.3" x2="415.6" y2="36.9"/>
<line class="st2" x1="490.8" y1="415.3" x2="490.8" y2="36.9"/>
<line class="st2" x1="566" y1="415.3" x2="566" y2="36.9"/>
<line class="st2" x1="716.5" y1="415.3" x2="716.5" y2="36.9"/>
<line class="st2" x1="791.7" y1="415.3" x2="791.7" y2="36.9"/>
<line class="st2" x1="867" y1="415.3" x2="867" y2="36.9"/>
<line class="st2" x1="1017.4" y1="415.3" x2="1017.4" y2="36.9"/>
<line class="st2" x1="1092.7" y1="415.3" x2="1092.7" y2="36.9"/>
<line class="st2" x1="1167.9" y1="415.3" x2="1167.9" y2="36.9"/>
<line class="st0" x1="340.3" y1="415.3" x2="340.3" y2="36.9"/>
<line class="st0" x1="641.3" y1="415.3" x2="641.3" y2="36.9"/>
<line class="st0" x1="942.2" y1="415.3" x2="942.2" y2="36.9"/>
<path class="st3" d="M301.2,338.6c3.2-7.9,22.2-42.8,38.1-76.1c20.6-42.8,42.8-84.1,58.7-123.8c15.9-46,22.2-95.2-4.7-101.5
	c-20.7-3.2-34.9,17.4-42.8,41.2c-4.8,12.7-6.3,28.6-7.9,42.8c-1.6,17.4-3.2,31.7-3.2,46c1.6,65,0,130.1,3.2,195.1
	c0,17.5,12.7,52.4,44.4,52.4c47.6-1.6,69.8-74.6,63.5-120.6c-1.6-15.9-7.9-28.6-23.8-27c-15.9,1.6-18.3,26.2,0.6,42.7
	c19.6,17.1,55,25.9,80.2-23.4"/>
<path class="st3" d="M551.5,265.6c31.5,0,58,29.8,58,74.6c0,44.7-26.5,74.5-58,74.5c-33.2,0-61.3-28.1-61.3-72.9
	C490.2,297.1,518.3,265.6,551.5,265.6z"/>
<path class="st3" d="M609.5,265.6v124.3v1.7c1.7,16.6,8.3,23.2,19.9,23.2c36.5,1.7,51.4-54.7,58-74.5"/>
<line class="st3" x1="556.3" y1="209" x2="589.4" y2="177.6"/>
<path class="st3" d="M750.4,265.6c33.2,0,59.7,33.2,59.7,74.6c0,41.4-26.5,74.5-59.7,74.5c-33.1,0-59.7-33.1-59.7-74.5
	C690.7,298.7,717.3,265.6,750.4,265.6z"/>
</svg>
