<?xml version="1.0" encoding="utf-8"?>
<!-- Generator: Adobe Illustrator 21.1.0, SVG Export Plug-In . SVG Version: 6.00 Build 0)  -->
<svg version="1.1" id="Layer_1" xmlns="http://www.w3.org/2000/svg" xmlns:xlink="http://www.w3.org/1999/xlink" x="0px" y="0px"
	 viewBox="0 0 720 207.5" style="enable-background:new 0 0 720 207.5;" xml:space="preserve">
<style type="text/css">
	.st0{fill:none;stroke:#00ADEE;stroke-width:2.1055;}
	.st1{fill:none;stroke:#00ADEE;stroke-width:0.851;stroke-linecap:round;stroke-linejoin:round;stroke-dasharray:0.4287,3.4041;}
	.st2{fill:none;stroke:#00ADEE;stroke-width:0.851;stroke-linecap:round;stroke-linejoin:round;stroke-dasharray:0.4476,3.423;}
	.st3{fill:none;stroke:#231F20;stroke-width:3.0085;stroke-linecap:round;stroke-linejoin:round;}
</style>
<line class="st0" x1="701.4" y1="190.2" x2="20.1" y2="190.2"/>
<line class="st0" x1="701.4" y1="19.9" x2="20.1" y2="19.9"/>
<line class="st1" x1="20.1" y1="147.6" x2="701.4" y2="147.6"/>
<line class="st1" x1="20.1" y1="105" x2="701.4" y2="105"/>
<line class="st1" x1="20.1" y1="62.4" x2="701.4" y2="62.4"/>
<line class="st2" x1="62.6" y1="190.1" x2="62.6" y2="19.7"/>
<line class="st2" x1="105.2" y1="190.1" x2="105.2" y2="19.7"/>
<line class="st2" x1="147.8" y1="190.1" x2="147.8" y2="19.9"/>
<line class="st2" x1="233" y1="190.1" x2="233" y2="19.9"/>
<line class="st2" x1="275.6" y1="190.1" x2="275.6" y2="19.9"/>
<line class="st2" x1="318.2" y1="190.1" x2="318.2" y2="19.9"/>
<line class="st2" x1="403.3" y1="190.1" x2="403.3" y2="19.9"/>
<line class="st2" x1="445.9" y1="190.1" x2="445.9" y2="19.9"/>
<line class="st2" x1="488.5" y1="190.1" x2="488.5" y2="19.9"/>
<line class="st2" x1="573.7" y1="190.1" x2="573.7" y2="19.9"/>
<line class="st2" x1="616.3" y1="190.1" x2="616.3" y2="19.9"/>
<line class="st2" x1="658.8" y1="190.1" x2="658.8" y2="19.9"/>
<line class="st0" x1="190.4" y1="190.1" x2="190.4" y2="19.8"/>
<line class="st0" x1="20.1" y1="190.1" x2="20.1" y2="19.8"/>
<line class="st0" x1="360.7" y1="190.1" x2="360.7" y2="19.8"/>
<line class="st0" x1="531.1" y1="190.1" x2="531.1" y2="19.8"/>
<line class="st0" x1="701.4" y1="190.1" x2="701.4" y2="19.8"/>
<line class="st3" x1="345.6" y1="52.6" x2="321.6" y2="39.7"/>
<polyline class="st3" points="306.8,84.1 321.6,71.1 336.4,84.1 "/>
<path class="st3" d="M313.5,106.2c17.6,0,32.4,16.7,32.4,41.7c0,25-14.8,41.6-32.4,41.6c-18.5,0-35.2-15.7-35.2-40.7
	C278.4,123.8,295,106.2,313.5,106.2z"/>
<path class="st3" d="M345.9,106.2v69.4v0.9c0.9,9.3,3.7,13,11.1,13c19.4,0.9,32.5-29.4,35.8-40"/>
<path class="st3" d="M524,149.7c-5.5,12.9-16.7,39.8-34.2,39.8c-13.9-0.9-13.9-23.1-13.9-30.5v-53.7"/>
<path class="st3" d="M475.9,113.6c-0.9,12-4.4,27-7.4,36.1c-7.6,22.8-24,39.8-38.8,39.8c-18.5-0.9-20.4-23.1-20.4-30.5v-53.7
	c-5.6,16.6-9.3,25.6-16,43.4"/>
<path class="st3" d="M279.1,148.5c-15.7,23.1-33.3,43.5-53.7,40.7c-16.7-1.8-32.4-17.6-32.4-41.6c-0.9-30.5,27.8-54.6,50.9-33.3"/>
</svg>
