<?xml version="1.0" encoding="utf-8"?>
<!-- Generator: Adobe Illustrator 21.1.0, SVG Export Plug-In . SVG Version: 6.00 Build 0)  -->
<svg version="1.1" id="Layer_1" xmlns="http://www.w3.org/2000/svg" xmlns:xlink="http://www.w3.org/1999/xlink" x="0px" y="0px"
	 viewBox="0 0 1286 450" style="enable-background:new 0 0 1286 450;" xml:space="preserve">
<style type="text/css">
	.st0{fill:none;stroke:#00ADEE;stroke-width:3;}
	.st1{fill:none;stroke:#00ADEE;stroke-width:1.5035;stroke-linecap:round;stroke-linejoin:round;stroke-dasharray:0.7573,6.0139;}
	.st2{fill:none;stroke:#00ADEE;stroke-width:1.5035;stroke-linecap:round;stroke-linejoin:round;stroke-dasharray:0.7907,6.0473;}
	.st3{fill:none;stroke:#231F20;stroke-width:6;stroke-linecap:round;}
</style>
<path class="st0" d="M1243.8,114.6H39.4"/>
<polygon class="st0" points="39.4,415.3 1243.8,415.5 1243.8,37 39.4,37 "/>
<line class="st1" x1="39.4" y1="340.3" x2="1243.8" y2="340.3"/>
<line class="st1" x1="39.4" y1="265" x2="1243.8" y2="265"/>
<line class="st1" x1="39.4" y1="189.8" x2="1243.8" y2="189.8"/>
<line class="st2" x1="114.6" y1="415.3" x2="114.6" y2="36.5"/>
<line class="st2" x1="189.9" y1="415.3" x2="189.9" y2="36.5"/>
<line class="st2" x1="265.1" y1="415.3" x2="265.1" y2="36.9"/>
<line class="st2" x1="415.6" y1="415.3" x2="415.6" y2="36.9"/>
<line class="st2" x1="490.8" y1="415.3" x2="490.8" y2="36.9"/>
<line class="st2" x1="566" y1="415.3" x2="566" y2="36.9"/>
<line class="st2" x1="716.5" y1="415.3" x2="716.5" y2="36.9"/>
<line class="st2" x1="791.7" y1="415.3" x2="791.7" y2="36.9"/>
<line class="st2" x1="867" y1="415.3" x2="867" y2="36.9"/>
<line class="st2" x1="1017.4" y1="415.3" x2="1017.4" y2="36.9"/>
<line class="st2" x1="1092.7" y1="415.3" x2="1092.7" y2="36.9"/>
<line class="st2" x1="1167.9" y1="415.3" x2="1167.9" y2="36.9"/>
<line class="st0" x1="340.3" y1="415.3" x2="340.3" y2="36.9"/>
<line class="st0" x1="641.3" y1="415.3" x2="641.3" y2="36.9"/>
<line class="st0" x1="942.2" y1="415.3" x2="942.2" y2="36.9"/>
<path class="st0" d="M700.2,265c32.9,0,59.3,34.6,59.3,75.8s-26.4,74.1-59.3,74.1c-31.3,0-59.3-32.9-59.3-74.1S668.9,265,700.2,265z
	"/>
<path class="st0" d="M641.1,345.4c-29.2,57-66.8,72.9-93.2,69.6c-3.3,0-8.2,0-11.5-1.7c-31.3-8.2-47.8-42.8-46.1-72.5
	c0-32.9,23-67.5,57.6-74.1c32.9-6.6,65.9,32.9,14.8,69.1c-14.5,11.6-54.6,38.6-85.4,59.5"/>
<path class="st3" d="M700.2,265c32.9,0,59.3,34.6,59.3,75.8s-26.4,74.1-59.3,74.1c-31.3,0-59.3-32.9-59.3-74.1S668.9,265,700.2,265z
	"/>
<path class="st3" d="M641.1,345.4c-29.2,57-66.8,72.9-93.2,69.6c-3.3,0-8.2,0-11.5-1.7c-31.3-8.2-47.8-42.8-46.1-72.5
	c0-32.9,23-67.5,57.6-74.1c32.9-6.6,65.9,32.9,14.8,69.1c-14.5,11.6-54.6,38.6-85.4,59.5"/>
</svg>
