<?xml version="1.0" encoding="utf-8"?>
<!-- Generator: Adobe Illustrator 21.1.0, SVG Export Plug-In . SVG Version: 6.00 Build 0)  -->
<svg version="1.1" id="Layer_1" xmlns="http://www.w3.org/2000/svg" xmlns:xlink="http://www.w3.org/1999/xlink" x="0px" y="0px"
	 viewBox="0 0 1286 450" style="enable-background:new 0 0 1286 450;" xml:space="preserve">
<style type="text/css">
	.st0{fill:none;stroke:#00ADEE;stroke-width:1.5035;stroke-linecap:round;stroke-linejoin:round;stroke-dasharray:0.7573,6.0139;}
	.st1{fill:none;stroke:#00ADEE;stroke-width:3;}
	.st2{fill:none;stroke:#00ADEE;stroke-width:1.5035;stroke-linecap:round;stroke-linejoin:round;stroke-dasharray:0.7907,6.0473;}
	.st3{fill:none;stroke:#231F20;stroke-width:6;stroke-linecap:round;stroke-linejoin:round;}
</style>
<line class="st0" x1="39.4" y1="340.3" x2="1243.8" y2="340.3"/>
<line class="st0" x1="39.4" y1="265" x2="1243.8" y2="265"/>
<line class="st0" x1="39.4" y1="189.8" x2="1243.8" y2="189.8"/>
<polygon class="st1" points="39.4,415.3 1243.8,415.5 1243.8,114.8 39.4,114.8 "/>
<line class="st2" x1="114.6" y1="415.3" x2="114.6" y2="114.3"/>
<line class="st2" x1="189.9" y1="415.3" x2="189.9" y2="114.3"/>
<line class="st2" x1="265.1" y1="415.3" x2="265.1" y2="114.8"/>
<line class="st2" x1="415.6" y1="415.3" x2="415.6" y2="114.8"/>
<line class="st2" x1="490.8" y1="415.3" x2="490.8" y2="114.8"/>
<line class="st2" x1="566" y1="415.3" x2="566" y2="114.8"/>
<line class="st2" x1="716.5" y1="415.3" x2="716.5" y2="114.8"/>
<line class="st2" x1="791.7" y1="415.3" x2="791.7" y2="114.8"/>
<line class="st2" x1="867" y1="415.3" x2="867" y2="114.8"/>
<line class="st2" x1="1017.4" y1="415.3" x2="1017.4" y2="114.8"/>
<line class="st2" x1="1092.7" y1="415.3" x2="1092.7" y2="114.8"/>
<line class="st2" x1="1167.9" y1="415.3" x2="1167.9" y2="114.8"/>
<line class="st1" x1="340.3" y1="415.3" x2="340.3" y2="114.8"/>
<line class="st1" x1="641.3" y1="415.3" x2="641.3" y2="114.8"/>
<line class="st1" x1="942.2" y1="415.3" x2="942.2" y2="114.8"/>
<polyline class="st1" points="367.9,239.5 393.9,216.7 420,239.5 "/>
<path class="st1" d="M654.7,280.2c-1.6,21.2-6.5,52.2-13,63.6c-16.3,39.1-42.4,71.7-68.5,70.1c-32.6,0-35.8-40.7-35.8-52.2
	c0-23.7,0-94.7,0-94.7c-9.8,22.8-42.3,67-61.9,89.8"/>
<path class="st1" d="M654.7,267.2v94.5c0,11.4,0,52.2,24.4,52.2c24.4,1.6,40.7-27.7,55.4-66.8"/>
<path class="st1" d="M309.2,386.1c11.4-6.5,22.8-13,34.2-19.5c16.3-6.5,55.4-21.2,66.8-29.4c50.5-35.8,17.9-73.3-13-70
	c-34.2,4.9-55.4,42.4-57,73.3c-1.6,31.1,11.9,68.4,44,73.3c3.2,0.5,13,0,13,0c37.8-6.5,60.6-36.4,78.2-57"/>
<polyline class="st3" points="367.9,239.5 393.9,216.7 420,239.5 "/>
<path class="st3" d="M654.7,280.2c-1.6,21.2-6.5,52.2-13,63.6c-16.3,39.1-42.4,71.7-68.5,70.1c-32.6,0-35.8-40.7-35.8-52.2
	c0-23.7,0-94.7,0-94.7c-9.8,22.8-42.3,67-61.9,89.8"/>
<path class="st3" d="M654.7,267.2v94.5c0,11.4,0,52.2,24.4,52.2c24.4,1.6,40.7-27.7,55.4-66.8"/>
<path class="st3" d="M309.2,386.1c11.4-6.5,22.8-13,34.2-19.5c16.3-6.5,55.4-21.2,66.8-29.4c50.5-35.8,17.9-73.3-13-70
	c-34.2,4.9-55.4,42.4-57,73.3c-1.6,31.1,11.9,68.4,44,73.3c3.2,0.5,13,0,13,0c37.8-6.5,60.6-36.4,78.2-57"/>
</svg>
