<?xml version="1.0" encoding="utf-8"?>
<!-- Generator: Adobe Illustrator 21.1.0, SVG Export Plug-In . SVG Version: 6.00 Build 0)  -->
<svg version="1.1" id="Layer_1" xmlns="http://www.w3.org/2000/svg" xmlns:xlink="http://www.w3.org/1999/xlink" x="0px" y="0px"
	 viewBox="0 0 854 450" style="enable-background:new 0 0 854 450;" xml:space="preserve">
<style type="text/css">
	.st0{fill:none;stroke:#00ADEE;stroke-width:2.4519;}
	.st1{fill:none;stroke:#00ADEE;stroke-width:0.991;stroke-linecap:round;stroke-linejoin:round;stroke-dasharray:0.4992,3.9641;}
	.st2{fill:none;stroke:#00ADEE;stroke-width:0.991;stroke-linecap:round;stroke-linejoin:round;stroke-dasharray:0.5212,3.9861;}
	.st3{fill:none;stroke:#00ADEE;stroke-width:2;}
	.st4{fill:none;stroke:#231F20;stroke-width:4;stroke-linecap:round;stroke-linejoin:round;}
</style>
<path class="st0" d="M28.6,79.4H822 M28.6,277.8H822"/>
<rect x="28.6" y="27.9" class="st0" width="793.5" height="399.1"/>
<line class="st1" x1="28.6" y1="129" x2="822" y2="129"/>
<line class="st1" x1="28.6" y1="178.6" x2="822" y2="178.6"/>
<line class="st1" x1="28.6" y1="228.2" x2="822" y2="228.2"/>
<line class="st1" x1="28.6" y1="332.8" x2="822" y2="332.8"/>
<line class="st1" x1="28.6" y1="377.1" x2="822" y2="377.1"/>
<line class="st2" x1="78.1" y1="27.9" x2="78.1" y2="426.6"/>
<line class="st2" x1="127.7" y1="27.9" x2="127.7" y2="426.6"/>
<line class="st2" x1="177.3" y1="27.9" x2="177.3" y2="426.6"/>
<line class="st2" x1="276.5" y1="27.9" x2="276.5" y2="426.6"/>
<line class="st2" x1="326.1" y1="27.9" x2="326.1" y2="426.6"/>
<line class="st2" x1="375.7" y1="27.9" x2="375.7" y2="426.6"/>
<line class="st2" x1="474.9" y1="27.9" x2="474.9" y2="426.6"/>
<line class="st2" x1="524.5" y1="27.9" x2="524.5" y2="426.6"/>
<line class="st2" x1="574" y1="27.9" x2="574" y2="426.6"/>
<line class="st2" x1="673.2" y1="27.9" x2="673.2" y2="426.6"/>
<line class="st2" x1="722.8" y1="27.9" x2="722.8" y2="426.6"/>
<line class="st2" x1="772.4" y1="27.9" x2="772.4" y2="426.6"/>
<line class="st0" x1="226.9" y1="27.9" x2="226.9" y2="426.6"/>
<line class="st0" x1="425.3" y1="27.9" x2="425.3" y2="426.6"/>
<line class="st0" x1="623.6" y1="27.9" x2="623.6" y2="426.6"/>
<path class="st3" d="M493,189.3c0,14-5.3,34.3-8.5,41.8c-10.7,25.7-27.9,46.1-45.1,46.1c-21.4,0-23.6-26.8-23.6-35.4v-62.7
	c-6.4,15-24.7,45.5-35.4,59.4"/>
<path class="st3" d="M493.1,179.7v62.2c0,8.6,0,35.4,16.1,35.4c16.1,0,26.8-18.2,36.5-44"/>
<polyline class="st3" points="306.5,155.2 323.7,141.3 340.9,155.2 "/>
<path class="st3" d="M380.4,238.9c-16.3,23.2-31.1,39.9-59,37.8c-3.2,0-5.4,0-8.6-1.1c-20.4-5.4-31.1-26.8-30-47.2
	c1.1-21.5,16.1-45.1,37.5-48.3c21.4-3.2,41.8,24.7,10.7,47.2c-7.5,5.4-29,19.3-42.9,27.9c-9.7,6.4-29.7,21.6-44,21.6
	c-18.4,0-17.2-25.9-17.2-25.9v-72.3c-4.3,11.8-11.9,32.7-23.8,51.5"/>
<path class="st3" d="M227,154.4c3.6,0,7.1-3.6,7.1-7.2c0-3.6-3.6-7.1-7.1-7.1c-3.6,0-7.2,3.6-7.2,7.1
	C219.9,150.8,223.5,154.4,227,154.4z"/>
<path class="st4" d="M493,189.3c0,14-5.3,34.3-8.5,41.8c-10.7,25.7-27.9,46.1-45.1,46.1c-21.4,0-23.6-26.8-23.6-35.4v-62.7
	c-6.4,15-24.7,45.5-35.4,59.4"/>
<path class="st4" d="M493.1,179.7v62.2c0,8.6,0,35.4,16.1,35.4c16.1,0,26.8-18.2,36.5-44"/>
<polyline class="st4" points="306.5,155.2 323.7,141.3 340.9,155.2 "/>
<path class="st4" d="M380.4,238.9c-16.3,23.2-31.1,39.9-59,37.8c-3.2,0-5.4,0-8.6-1.1c-20.4-5.4-31.1-26.8-30-47.2
	c1.1-21.5,16.1-45.1,37.5-48.3c21.4-3.2,41.8,24.7,10.7,47.2c-7.5,5.4-29,19.3-42.9,27.9c-9.7,6.4-29.7,21.6-44,21.6
	c-18.4,0-17.2-25.9-17.2-25.9v-72.3c-4.3,11.8-11.9,32.7-23.8,51.5"/>
<path class="st4" d="M227,154.4c3.6,0,7.1-3.6,7.1-7.2c0-3.6-3.6-7.1-7.1-7.1c-3.6,0-7.2,3.6-7.2,7.1
	C219.9,150.8,223.5,154.4,227,154.4z"/>
</svg>
