<?xml version="1.0" encoding="utf-8"?>
<!-- Generator: Adobe Illustrator 21.1.0, SVG Export Plug-In . SVG Version: 6.00 Build 0)  -->
<svg version="1.1" id="Layer_1" xmlns="http://www.w3.org/2000/svg" xmlns:xlink="http://www.w3.org/1999/xlink" x="0px" y="0px"
	 viewBox="0 0 1286 450" style="enable-background:new 0 0 1286 450;" xml:space="preserve">
<style type="text/css">
	.st0{fill:none;stroke:#00ADEE;stroke-width:1.5035;stroke-linecap:round;stroke-linejoin:round;stroke-dasharray:0.7573,6.0139;}
	.st1{fill:none;stroke:#00ADEE;stroke-width:3;}
	.st2{fill:none;stroke:#00ADEE;stroke-width:1.5035;stroke-linecap:round;stroke-linejoin:round;stroke-dasharray:0.7907,6.0473;}
	.st3{fill:none;stroke:#231F20;stroke-width:6;stroke-linecap:round;stroke-linejoin:round;}
</style>
<line class="st0" x1="39.4" y1="340.3" x2="1243.8" y2="340.3"/>
<line class="st0" x1="39.4" y1="265" x2="1243.8" y2="265"/>
<line class="st0" x1="39.4" y1="189.8" x2="1243.8" y2="189.8"/>
<polygon class="st1" points="39.4,415.3 1243.8,415.5 1243.8,114.8 39.4,114.8 "/>
<line class="st2" x1="114.6" y1="415.3" x2="114.6" y2="114.3"/>
<line class="st2" x1="189.9" y1="415.3" x2="189.9" y2="114.3"/>
<line class="st2" x1="265.1" y1="415.3" x2="265.1" y2="114.8"/>
<line class="st2" x1="415.6" y1="415.3" x2="415.6" y2="114.8"/>
<line class="st2" x1="490.8" y1="415.3" x2="490.8" y2="114.8"/>
<line class="st2" x1="566" y1="415.3" x2="566" y2="114.8"/>
<line class="st2" x1="716.5" y1="415.3" x2="716.5" y2="114.8"/>
<line class="st2" x1="791.7" y1="415.3" x2="791.7" y2="114.8"/>
<line class="st2" x1="867" y1="415.3" x2="867" y2="114.8"/>
<line class="st2" x1="1017.4" y1="415.3" x2="1017.4" y2="114.8"/>
<line class="st2" x1="1092.7" y1="415.3" x2="1092.7" y2="114.8"/>
<line class="st2" x1="1167.9" y1="415.3" x2="1167.9" y2="114.8"/>
<line class="st1" x1="340.3" y1="415.3" x2="340.3" y2="114.8"/>
<line class="st1" x1="641.3" y1="415.3" x2="641.3" y2="114.8"/>
<line class="st1" x1="942.2" y1="415.3" x2="942.2" y2="114.8"/>
<path class="st1" d="M340,246.2c5,0,10.2-5.1,10.2-10.2c0-5.1-5.1-10.2-10.2-10.2s-10.2,5.1-10.2,10.2
	C329.9,241.2,335,246.2,340,246.2z"/>
<path class="st1" d="M313.5,335.6c12.5-26.6,20.3-56.3,26.6-68.8v109.4c0,0-1.5,40.7,23.5,37.5c19.9-2.3,40.4-19.1,60-67.6"/>
<path class="st1" d="M641.3,346.7c-9.4,21.9-24.7,67.2-54.5,67.2c-23.5-1.6-23.5-39.1-23.5-51.6v-96.8"/>
<path class="st1" d="M563.4,285.7c-1.6,20.4-6.2,50-12.5,61c-15.6,37.5-40.6,67.2-65.6,67.2c-31.3-1.6-34.4-39.1-34.4-51.6v-96.9
	c-8.4,28.3-14.7,53.3-27.2,80.3"/>
<path class="st3" d="M340,246.2c5,0,10.2-5.1,10.2-10.2c0-5.1-5.1-10.2-10.2-10.2s-10.2,5.1-10.2,10.2
	C329.9,241.2,335,246.2,340,246.2z"/>
<path class="st3" d="M313.5,335.6c12.5-26.6,20.3-56.3,26.6-68.8v109.4c0,0-1.5,40.7,23.5,37.5c19.9-2.3,40.4-19.1,60-67.6"/>
<path class="st3" d="M641.3,346.7c-9.4,21.9-24.7,67.2-54.5,67.2c-23.5-1.6-23.5-39.1-23.5-51.6v-96.8"/>
<path class="st3" d="M563.4,285.7c-1.6,20.4-6.2,50-12.5,61c-15.6,37.5-40.6,67.2-65.6,67.2c-31.3-1.6-34.4-39.1-34.4-51.6v-96.9
	c-8.4,28.3-14.7,53.3-27.2,80.3"/>
</svg>
