<?xml version="1.0" encoding="utf-8"?>
<!-- Generator: Adobe Illustrator 21.1.0, SVG Export Plug-In . SVG Version: 6.00 Build 0)  -->
<svg version="1.1" id="Layer_1" xmlns="http://www.w3.org/2000/svg" xmlns:xlink="http://www.w3.org/1999/xlink" x="0px" y="0px"
	 viewBox="0 0 1286 450" style="enable-background:new 0 0 1286 450;" xml:space="preserve">
<style type="text/css">
	.st0{fill:none;stroke:#00ADEE;stroke-width:3;}
	.st1{fill:none;stroke:#00ADEE;stroke-width:1.5035;stroke-linecap:round;stroke-linejoin:round;stroke-dasharray:0.7573,6.0139;}
	.st2{fill:none;stroke:#00ADEE;stroke-width:1.5035;stroke-linecap:round;stroke-linejoin:round;stroke-dasharray:0.7907,6.0473;}
	.st3{fill:none;stroke:#231F20;stroke-width:6;stroke-linecap:round;}
</style>
<path class="st0" d="M1243.8,114.6H39.4"/>
<polygon class="st0" points="39.4,415.3 1243.8,415.5 1243.8,37 39.4,37 "/>
<line class="st1" x1="39.4" y1="340.3" x2="1243.8" y2="340.3"/>
<line class="st1" x1="39.4" y1="265" x2="1243.8" y2="265"/>
<line class="st1" x1="39.4" y1="189.8" x2="1243.8" y2="189.8"/>
<line class="st2" x1="114.6" y1="415.3" x2="114.6" y2="36.5"/>
<line class="st2" x1="189.9" y1="415.3" x2="189.9" y2="36.5"/>
<line class="st2" x1="265.1" y1="415.3" x2="265.1" y2="36.9"/>
<line class="st2" x1="415.6" y1="415.3" x2="415.6" y2="36.9"/>
<line class="st2" x1="490.8" y1="415.3" x2="490.8" y2="36.9"/>
<line class="st2" x1="566" y1="415.3" x2="566" y2="36.9"/>
<line class="st2" x1="716.5" y1="415.3" x2="716.5" y2="36.9"/>
<line class="st2" x1="791.7" y1="415.3" x2="791.7" y2="36.9"/>
<line class="st2" x1="867" y1="415.3" x2="867" y2="36.9"/>
<line class="st2" x1="1017.4" y1="415.3" x2="1017.4" y2="36.9"/>
<line class="st2" x1="1092.7" y1="415.3" x2="1092.7" y2="36.9"/>
<line class="st2" x1="1167.9" y1="415.3" x2="1167.9" y2="36.9"/>
<line class="st0" x1="340.3" y1="415.3" x2="340.3" y2="36.9"/>
<line class="st0" x1="641.3" y1="415.3" x2="641.3" y2="36.9"/>
<line class="st0" x1="942.2" y1="415.3" x2="942.2" y2="36.9"/>
<path class="st0" d="M860,266.9c32.4,0,58.3,34,58.3,74.6c0,40.5-25.9,72.9-58.3,72.9c-30.8,0-58.3-32.4-58.3-72.9
	C801.7,300.9,829.2,266.9,860,266.9z"/>
<line class="st0" x1="745.7" y1="216.1" x2="698.8" y2="190.8"/>
<path class="st0" d="M340.7,414.2V312.5c0-37.7-13.1-50.9-34.5-45.9c-18,3.2-37.7,19.7-42.7,26.2"/>
<path class="st0" d="M340.7,365c1.6-3.3,1.6-6.5,3.3-9.8c9.8-26.3,37.7-90.2,75.4-88.6c29.5,0,37.7,23,37.7,44.3v103.3"/>
<path class="st0" d="M804.6,367.9c-19.7,24.6-49.1,46.3-85,46.3c-4.9,0-8.2,0-13.1-1.6c-31.1-9.8-47.6-42.6-45.9-72.2
	c0-32.8,24.6-67.2,57.4-73.8c34.4-6.6,65.6,31.1,14.8,67.2c-13.1,8.2-103.4,78.7-128,80.4c-19.7,1.6-29.5-11.5-31.2-42.6v-57.4v-1.6
	c0-21.4-9.8-45.9-39.4-45.9c-37.7-1.6-63.1,61-73.8,86.9c-1.7,4-2.5,7.2-3.4,11.5"/>
<path class="st3" d="M860,266.9c32.4,0,58.3,34,58.3,74.6c0,40.5-25.9,72.9-58.3,72.9c-30.8,0-58.3-32.4-58.3-72.9
	C801.7,300.9,829.2,266.9,860,266.9z"/>
<line class="st3" x1="745.7" y1="216.1" x2="698.8" y2="190.8"/>
<path class="st3" d="M340.7,414.2V312.5c0-37.7-13.1-50.9-34.5-45.9c-18,3.2-37.7,19.7-42.7,26.2"/>
<path class="st3" d="M340.7,365c1.6-3.3,1.6-6.5,3.3-9.8c9.8-26.3,37.7-90.2,75.4-88.6c29.5,0,37.7,23,37.7,44.3v103.3"/>
<path class="st3" d="M804.6,367.9c-19.7,24.6-49.1,46.3-85,46.3c-4.9,0-8.2,0-13.1-1.6c-31.1-9.8-47.6-42.6-45.9-72.2
	c0-32.8,24.6-67.2,57.4-73.8c34.4-6.6,65.6,31.1,14.8,67.2c-13.1,8.2-103.4,78.7-128,80.4c-19.7,1.6-29.5-11.5-31.2-42.6v-57.4v-1.6
	c0-21.4-9.8-45.9-39.4-45.9c-37.7-1.6-63.1,61-73.8,86.9c-1.7,4-2.5,7.2-3.4,11.5"/>
</svg>
