<?xml version="1.0" encoding="utf-8"?>
<!-- Generator: Adobe Illustrator 21.1.0, SVG Export Plug-In . SVG Version: 6.00 Build 0)  -->
<svg version="1.1" id="Layer_1" xmlns="http://www.w3.org/2000/svg" xmlns:xlink="http://www.w3.org/1999/xlink" x="0px" y="0px"
	 viewBox="0 0 720 207.5" style="enable-background:new 0 0 720 207.5;" xml:space="preserve">
<style type="text/css">
	.st0{fill:none;stroke:#00ADEE;stroke-width:2.1055;}
	.st1{fill:none;stroke:#00ADEE;stroke-width:0.851;stroke-linecap:round;stroke-linejoin:round;stroke-dasharray:0.4287,3.4041;}
	.st2{fill:none;stroke:#00ADEE;stroke-width:0.851;stroke-linecap:round;stroke-linejoin:round;stroke-dasharray:0.4476,3.423;}
	.st3{fill:none;stroke:#231F20;stroke-width:3.0102;stroke-linecap:round;stroke-linejoin:round;}
</style>
<line class="st0" x1="701.4" y1="190.2" x2="20.1" y2="190.2"/>
<line class="st0" x1="701.4" y1="19.9" x2="20.1" y2="19.9"/>
<line class="st1" x1="20.1" y1="147.6" x2="701.4" y2="147.6"/>
<line class="st1" x1="20.1" y1="105" x2="701.4" y2="105"/>
<line class="st1" x1="20.1" y1="62.4" x2="701.4" y2="62.4"/>
<line class="st2" x1="62.6" y1="190.1" x2="62.6" y2="19.7"/>
<line class="st2" x1="105.2" y1="190.1" x2="105.2" y2="19.7"/>
<line class="st2" x1="147.8" y1="190.1" x2="147.8" y2="19.9"/>
<line class="st2" x1="233" y1="190.1" x2="233" y2="19.9"/>
<line class="st2" x1="275.6" y1="190.1" x2="275.6" y2="19.9"/>
<line class="st2" x1="318.2" y1="190.1" x2="318.2" y2="19.9"/>
<line class="st2" x1="403.3" y1="190.1" x2="403.3" y2="19.9"/>
<line class="st2" x1="445.9" y1="190.1" x2="445.9" y2="19.9"/>
<line class="st2" x1="488.5" y1="190.1" x2="488.5" y2="19.9"/>
<line class="st2" x1="573.7" y1="190.1" x2="573.7" y2="19.9"/>
<line class="st2" x1="616.3" y1="190.1" x2="616.3" y2="19.9"/>
<line class="st2" x1="658.8" y1="190.1" x2="658.8" y2="19.9"/>
<line class="st0" x1="190.4" y1="190.1" x2="190.4" y2="19.8"/>
<line class="st0" x1="20.1" y1="190.1" x2="20.1" y2="19.8"/>
<line class="st0" x1="360.7" y1="190.1" x2="360.7" y2="19.8"/>
<line class="st0" x1="531.1" y1="190.1" x2="531.1" y2="19.8"/>
<line class="st0" x1="701.4" y1="190.1" x2="701.4" y2="19.8"/>
<path class="st3" d="M314.7,106.3c17.6,0,32.4,16.7,32.4,41.7c0,25-14.8,41.6-32.4,41.6c-18.5,0-35.2-15.7-35.2-40.7
	C279.5,123.9,296.2,106.3,314.7,106.3z"/>
<path class="st3" d="M347.1,106.3v69.4v0.9c0.9,9.3,3.7,13,11.1,13c19.4,0.9,32.1-29.4,35.5-40"/>
<path class="st3" d="M525.3,149.8c-5.6,13-16.7,39.8-34.3,39.8c-13.9-0.9-13.9-23.1-13.9-30.5v-53.7"/>
<path class="st3" d="M477.2,113.7c-0.9,12-4.3,29.3-7.4,36.1c-10.8,23.2-24.1,39.8-38.9,39.8c-18.5-0.9-20.4-23.2-20.4-30.5V105
	c-5.6,16.6-9.9,26.1-16.6,43.8"/>
<path class="st3" d="M279.5,148c-10.2,22.2-19.4,42.6-33.3,41.7c-11.1-0.9-13.9-11.1-13.9-25v-28.7c0-25-11.1-28.7-18.5-29.6
	c-8.3-1.9-11.5,2.9-25.4,1.1c-5.6,0-11.4-1.9-14.6-5.1c-3.8-3.8-7.3-9.9-3.6-15.4c1.8-2.8,7.4-2.8,12,0.9c3.7,3.7,8,11.2,8,15.8
	c1.9,17.6-11.7,63.8-25.6,86.1"/>
</svg>
