<?xml version="1.0" encoding="utf-8"?>
<!-- Generator: Adobe Illustrator 21.1.0, SVG Export Plug-In . SVG Version: 6.00 Build 0)  -->
<svg version="1.1" id="Layer_1" xmlns="http://www.w3.org/2000/svg" xmlns:xlink="http://www.w3.org/1999/xlink" x="0px" y="0px"
	 viewBox="0 0 854 450" style="enable-background:new 0 0 854 450;" xml:space="preserve">
<style type="text/css">
	.st0{fill:none;stroke:#00ADEE;stroke-width:2.4519;}
	.st1{fill:none;stroke:#00ADEE;stroke-width:0.991;stroke-linecap:round;stroke-linejoin:round;stroke-dasharray:0.4992,3.9641;}
	.st2{fill:none;stroke:#00ADEE;stroke-width:0.991;stroke-linecap:round;stroke-linejoin:round;stroke-dasharray:0.5212,3.9861;}
	.st3{fill:none;stroke:#00ADEE;stroke-width:2;}
	.st4{fill:none;stroke:#231F20;stroke-width:4;stroke-linecap:round;stroke-linejoin:round;}
</style>
<path class="st0" d="M28.6,79.4H822 M28.6,277.8H822"/>
<rect x="28.6" y="27.9" class="st0" width="793.5" height="399.1"/>
<line class="st1" x1="28.6" y1="129" x2="822" y2="129"/>
<line class="st1" x1="28.6" y1="178.6" x2="822" y2="178.6"/>
<line class="st1" x1="28.6" y1="228.2" x2="822" y2="228.2"/>
<line class="st1" x1="28.6" y1="332.8" x2="822" y2="332.8"/>
<line class="st1" x1="28.6" y1="377.1" x2="822" y2="377.1"/>
<line class="st2" x1="78.1" y1="27.9" x2="78.1" y2="426.6"/>
<line class="st2" x1="127.7" y1="27.9" x2="127.7" y2="426.6"/>
<line class="st2" x1="177.3" y1="27.9" x2="177.3" y2="426.6"/>
<line class="st2" x1="276.5" y1="27.9" x2="276.5" y2="426.6"/>
<line class="st2" x1="326.1" y1="27.9" x2="326.1" y2="426.6"/>
<line class="st2" x1="375.7" y1="27.9" x2="375.7" y2="426.6"/>
<line class="st2" x1="474.9" y1="27.9" x2="474.9" y2="426.6"/>
<line class="st2" x1="524.5" y1="27.9" x2="524.5" y2="426.6"/>
<line class="st2" x1="574" y1="27.9" x2="574" y2="426.6"/>
<line class="st2" x1="673.2" y1="27.9" x2="673.2" y2="426.6"/>
<line class="st2" x1="722.8" y1="27.9" x2="722.8" y2="426.6"/>
<line class="st2" x1="772.4" y1="27.9" x2="772.4" y2="426.6"/>
<line class="st0" x1="226.9" y1="27.9" x2="226.9" y2="426.6"/>
<line class="st0" x1="425.3" y1="27.9" x2="425.3" y2="426.6"/>
<line class="st0" x1="623.6" y1="27.9" x2="623.6" y2="426.6"/>
<path class="st3" d="M559.9,189.4c0,13.8-5.2,33.9-8.4,41.3c-10.6,25.4-27.5,45.6-44.5,45.6c-21.2,0-23.3-26.5-23.3-35v-62.7"/>
<path class="st3" d="M560,178.9v62.4c0,8.5,0,35,15.9,35s26.5-18,36-43.5"/>
<path class="st3" d="M395.6,180.9c21.2,0,39.2,21.2,39.2,47.7s-18,47.7-39.2,47.7c-20.1,0-38.2-21.2-38.2-47.7
	S375.5,180.9,395.6,180.9z"/>
<path class="st3" d="M355.3,230.7c-4.2,10.6-17,45.6-33.9,45.6c-19.1,0-16.9-16.7-16.9-27.6c0-7.7,0-30.7,0-30.7v-38.1"/>
<path class="st3" d="M304.5,189.4c-1.1,13.8-4.3,33.9-7.4,42.4c-11.7,25.4-28.6,44.5-45.6,44.5c-21.2-1-24.4-25.4-24.4-33.9
	l1.1-62.7c-3.2,7.4-12.7,28.7-24.4,51"/>
<path class="st3" d="M423.2,164c11.6-7.4,28.6,11.6,0,27.6"/>
<path class="st3" d="M317.2,161.8c18-5.3,23.3,22.3-8.5,26.5"/>
<path class="st3" d="M423.2,194.9c-5.9,12.2,3.1,24.5,14.8,26.3c8.4,1.3,40.3-11.8,45.6-41.5"/>
<path class="st4" d="M559.9,189.4c0,13.8-5.2,33.9-8.4,41.3c-10.6,25.4-27.5,45.6-44.5,45.6c-21.2,0-23.3-26.5-23.3-35v-62.7"/>
<path class="st4" d="M560,178.9v62.4c0,8.5,0,35,15.9,35s26.5-18,36-43.5"/>
<path class="st4" d="M395.6,180.9c21.2,0,39.2,21.2,39.2,47.7s-18,47.7-39.2,47.7c-20.1,0-38.2-21.2-38.2-47.7
	S375.5,180.9,395.6,180.9z"/>
<path class="st4" d="M355.3,230.7c-4.2,10.6-17,45.6-33.9,45.6c-19.1,0-16.9-16.7-16.9-27.6c0-7.7,0-30.7,0-30.7v-38.1"/>
<path class="st4" d="M304.5,189.4c-1.1,13.8-4.3,33.9-7.4,42.4c-11.7,25.4-28.6,44.5-45.6,44.5c-21.2-1-24.4-25.4-24.4-33.9
	l1.1-62.7c-3.2,7.4-12.7,28.7-24.4,51"/>
<path class="st4" d="M423.2,164c11.6-7.4,28.6,11.6,0,27.6"/>
<path class="st4" d="M317.2,161.8c18-5.3,23.3,22.3-8.5,26.5"/>
<path class="st4" d="M423.2,194.9c-5.9,12.2,3.1,24.5,14.8,26.3c8.4,1.3,40.3-11.8,45.6-41.5"/>
</svg>
