<?xml version="1.0" encoding="utf-8"?>
<!-- Generator: Adobe Illustrator 21.1.0, SVG Export Plug-In . SVG Version: 6.00 Build 0)  -->
<svg version="1.1" id="Layer_1" xmlns="http://www.w3.org/2000/svg" xmlns:xlink="http://www.w3.org/1999/xlink" x="0px" y="0px"
	 viewBox="0 0 1286 450" style="enable-background:new 0 0 1286 450;" xml:space="preserve">
<style type="text/css">
	.st0{fill:none;stroke:#00ADEE;stroke-width:1.5035;stroke-linecap:round;stroke-linejoin:round;stroke-dasharray:0.7573,6.0139;}
	.st1{fill:none;stroke:#00ADEE;stroke-width:3;}
	.st2{fill:none;stroke:#00ADEE;stroke-width:1.5035;stroke-linecap:round;stroke-linejoin:round;stroke-dasharray:0.7907,6.0473;}
	.st3{fill:none;stroke:#231F20;stroke-width:6;stroke-linecap:round;stroke-linejoin:round;}
</style>
<line class="st0" x1="39.4" y1="340.3" x2="1243.8" y2="340.3"/>
<line class="st0" x1="39.4" y1="265" x2="1243.8" y2="265"/>
<line class="st0" x1="39.4" y1="189.8" x2="1243.8" y2="189.8"/>
<polygon class="st1" points="39.4,415.3 1243.8,415.5 1243.8,114.8 39.4,114.8 "/>
<line class="st2" x1="114.6" y1="415.3" x2="114.6" y2="114.3"/>
<line class="st2" x1="189.9" y1="415.3" x2="189.9" y2="114.3"/>
<line class="st2" x1="265.1" y1="415.3" x2="265.1" y2="114.8"/>
<line class="st2" x1="415.6" y1="415.3" x2="415.6" y2="114.8"/>
<line class="st2" x1="490.8" y1="415.3" x2="490.8" y2="114.8"/>
<line class="st2" x1="566" y1="415.3" x2="566" y2="114.8"/>
<line class="st2" x1="716.5" y1="415.3" x2="716.5" y2="114.8"/>
<line class="st2" x1="791.7" y1="415.3" x2="791.7" y2="114.8"/>
<line class="st2" x1="867" y1="415.3" x2="867" y2="114.8"/>
<line class="st2" x1="1017.4" y1="415.3" x2="1017.4" y2="114.8"/>
<line class="st2" x1="1092.7" y1="415.3" x2="1092.7" y2="114.8"/>
<line class="st2" x1="1167.9" y1="415.3" x2="1167.9" y2="114.8"/>
<line class="st1" x1="340.3" y1="415.3" x2="340.3" y2="114.8"/>
<line class="st1" x1="641.3" y1="415.3" x2="641.3" y2="114.8"/>
<line class="st1" x1="942.2" y1="415.3" x2="942.2" y2="114.8"/>
<path class="st1" d="M495.8,347.1c-10.6,22.6-31.7,66.8-57.4,66.8c-27.3,1.6-25.7-40.1-25.7-40.1v-46.6v-60.7"/>
<path class="st1" d="M412.7,282.2c0,20.9-5.3,52.8-9.6,64.3c-16.4,43.9-43.4,67.4-69.1,67.4c-32.1,0-36.9-38.6-36.9-51.4l1.6-96
	c-11.3,25.7-22.5,54.2-36.9,76.7"/>
<path class="st1" d="M433.6,242c27.3-8.1,28.9,33.7-20.9,40.1"/>
<path class="st1" d="M725,344.8c-9.6,22.5-28.9,69.1-59.4,69.1c-24.1-1.6-24.1-40.2-24.1-53v-93.2"/>
<path class="st1" d="M641.5,282.2c-1.6,20.9-6.4,51.4-12.8,62.7c-16,38.6-41.7,69.1-67.4,69.1c-32.1-1.6-35.3-40.2-35.3-53v-95.4
	c-8.6,29-16.1,51.5-28.9,79.3"/>
<path class="st3" d="M495.8,347.1c-10.6,22.6-31.7,66.8-57.4,66.8c-27.3,1.6-25.7-40.1-25.7-40.1v-46.6v-60.7"/>
<path class="st3" d="M412.7,282.2c0,20.9-5.3,52.8-9.6,64.3c-16.4,43.9-43.4,67.4-69.1,67.4c-32.1,0-36.9-38.6-36.9-51.4l1.6-96
	c-11.3,25.7-22.5,54.2-36.9,76.7"/>
<path class="st3" d="M433.6,242c27.3-8.1,28.9,33.7-20.9,40.1"/>
<path class="st3" d="M725,344.8c-9.6,22.5-28.9,69.1-59.4,69.1c-24.1-1.6-24.1-40.2-24.1-53v-93.2"/>
<path class="st3" d="M641.5,282.2c-1.6,20.9-6.4,51.4-12.8,62.7c-16,38.6-41.7,69.1-67.4,69.1c-32.1-1.6-35.3-40.2-35.3-53v-95.4
	c-8.6,29-16.1,51.5-28.9,79.3"/>
</svg>
