

<svg version="1.1" id="Layer_1" xmlns="http://www.w3.org/2000/svg" xmlns:xlink="http://www.w3.org/1999/xlink" x="0px" y="0px" viewBox="20 55 670 100" style="enable-background:new 0 0 720 207.5;" xml:space="preserve">

<g>
	<line x1="19.9" y1="128.4" x2="690.2" y2="128.4" style="fill: none; stroke: #00AEEF; stroke-width: 0.6884;"/>
	<line x1="19.9" y1="104.3" x2="690.2" y2="104.3" style="fill: none; stroke: #00AEEF; stroke-width: 0.6884;"/>
	<line x1="19.9" y1="80.3" x2="690.2" y2="80.3" style="fill: none; stroke: #00AEEF; stroke-width: 0.6884;"/>
	<line x1="19.9" y1="55" x2="690.4" y2="55" style="fill: none; stroke: #00AEEF; stroke-width: 1.3591;"/>
	<line x1="116.2" y1="152.5" x2="116.2" y2="55" style="fill: none; stroke: #00AEEF; stroke-width: 0.9592;"/>
	<line x1="212" y1="152.5" x2="212" y2="55" style="fill: none; stroke: #00AEEF; stroke-width: 0.9592;"/>
	<line x1="20.3" y1="153.1" x2="20.3" y2="55" style="fill: none; stroke: #00AEEF; stroke-width: 0.9592;"/>
	<line x1="307.8" y1="152.5" x2="307.8" y2="55" style="fill: none; stroke: #00AEEF; stroke-width: 0.9592;"/>
	<line x1="403.3" y1="152.5" x2="403.3" y2="55" style="fill: none; stroke: #00AEEF; stroke-width: 0.9592;"/>
	<line x1="499.1" y1="152.5" x2="499.1" y2="55" style="fill: none; stroke: #00AEEF; stroke-width: 0.9592;"/>
	<line x1="594.8" y1="152.5" x2="594.8" y2="55.1" style="fill: none; stroke: #00AEEF; stroke-width: 0.9592;"/>
	<polyline points="19.9,152.4 690.2,152.4 690.4,152.4 690.4,55 	" style="fill: none; stroke: #00AEEF; stroke-width: 1.3591;"/>
</g>
<line x1="329.7" y1="83.8" x2="340.6" y2="73.5" style="fill: none; stroke: #00AEEF; stroke-linecap: round; stroke-width: 1.688;"/>
<path d="M246.2,128c1-2.6,7-13,12.2-23.9c6.8-14.1,14.1-27.6,19.3-40.7c5.2-15.1,7.3-31.3-1.6-33.3
	c-6.8-1-11.8,5.8-14.6,13.5c-1.5,4.2-2.1,9.4-2.6,14.1c-0.6,5.7-0.5,10.4-0.5,15.1c0.5,21.4,0,40.7,1,62.1c0,5.7,4.2,17.2,14.6,17.2
	c15.6-0.5,22.9-23.2,20.8-38.3c-0.5-5.2-2.6-9.4-7.8-8.9c-5.2,0.5-6,7.3,0.2,12.7c6.4,5.6,20,9.7,28.3-6.5" style="fill: none; stroke: #00AEEF; stroke-linecap: round; stroke-width: 1.688;"/>
<path d="M246.8,126.5c1.4-2.9,6.4-11.5,11.6-22.4c6.8-14.1,14.1-27.6,19.3-40.7c5.2-15.1,7.3-31.3-1.6-33.3
	c-6.8-1-11.8,5.8-14.6,13.5c-1.5,4.2-2.1,9.4-2.6,14.1c-0.6,5.7-0.5,10.4-0.5,15.1c0.5,21.4,0,39.2,1,60.6c0,7.5,4.2,17.2,14.6,17.2
	c15.6-0.5,22.9-21.7,20.8-36.8c-0.5-5.2-2.6-9.4-7.8-8.9c-5.2,0.5-6,7.3,0.2,12.7c6.4,5.6,20.6,8.8,29.3-6" style="fill: none; stroke: #282829; stroke-linecap: round; stroke-linejoin: round; stroke-miterlimit: 10; stroke-width: 4.7553;"/>
<line x1="329.7" y1="83.8" x2="340.6" y2="73.5" style="fill: none; stroke: #282829; stroke-linecap: round; stroke-linejoin: round; stroke-miterlimit: 10; stroke-width: 5;"/>
<path d="M328.6,104.9c10,0,18.4,9.5,18.4,23.5c0,14.1-8.4,23.5-18.4,23.5c-10.5,0-19.4-8.9-19.4-23
	C309.2,114.9,318.1,104.9,328.6,104.9z" style="fill: none; stroke: #00AEEF; stroke-linecap: round; stroke-width: 1.6841;"/>
<path d="M347,104.7v39.4v0.5c0.5,5.3,2.6,7.3,6.3,7.3c11.5,0.5,16.3-17.3,18.4-23.6" style="fill: none; stroke: #00AEEF; stroke-linecap: round; stroke-width: 1.688;"/>
<path d="M390.7,104.9c10.4,0,18.8,10.5,18.8,23.5s-8.4,23.5-18.8,23.5s-18.8-10.5-18.8-23.5S380.3,104.9,390.7,104.9z" style="fill: none; stroke: #00AEEF; stroke-linecap: round; stroke-width: 1.6797;"/>
<path d="M343.3,115.8c1.9,3.5,3,7.8,3,12.6c0,13.3-8.1,22.1-17.7,22.1c-10.1,0-18.7-8.4-18.7-21.7
	c0-13.1,8.6-22.5,18.7-22.5c5.9,0,11.2,3.4,14.5,9" style="fill: none; stroke: #282829; stroke-linecap: round; stroke-linejoin: round; stroke-miterlimit: 10; stroke-width: 4.7553;"/>
<path d="M347,106.4v36.3v0.5c0.5,5.3,2.6,7.3,6.3,7.3c11.5,0.5,16.3-15.9,18.4-22.2" style="fill: none; stroke: #282829; stroke-linecap: round; stroke-linejoin: round; stroke-miterlimit: 10; stroke-width: 5;"/>
<path d="M400.8,110c4.7,4,7.7,10.7,7.7,18.4c0,12.4-7.9,22.3-17.8,22.3s-17.8-9.9-17.8-22.3c0-12.4,7.9-22.3,17.8-22.3
	c3.7,0,7,1.3,9.8,3.7" style="fill: none; stroke: #282829; stroke-linecap: round; stroke-linejoin: round; stroke-miterlimit: 10; stroke-width: 4.7213;"/>
</svg>
