

<svg version="1.1" id="Layer_1" xmlns="http://www.w3.org/2000/svg" xmlns:xlink="http://www.w3.org/1999/xlink" x="0px" y="0px" viewBox="20 55 670 100" style="enable-background:new 0 0 720 207.5;" xml:space="preserve">

<g>
	<line x1="19.9" y1="129.1" x2="690.2" y2="129.1" style="fill: none; stroke: #00AEEF; stroke-width: 0.6884;"/>
	<line x1="19.9" y1="105" x2="690.2" y2="105" style="fill: none; stroke: #00AEEF; stroke-width: 0.6884;"/>
	<line x1="19.9" y1="81" x2="690.2" y2="81" style="fill: none; stroke: #00AEEF; stroke-width: 0.6884;"/>
	<line x1="19.9" y1="55.7" x2="690.4" y2="55.7" style="fill: none; stroke: #00AEEF; stroke-width: 1.3591;"/>
	<line x1="116.2" y1="153.2" x2="116.2" y2="55.7" style="fill: none; stroke: #00AEEF; stroke-width: 0.9592;"/>
	<line x1="212" y1="153.2" x2="212" y2="55.7" style="fill: none; stroke: #00AEEF; stroke-width: 0.9592;"/>
	<line x1="20.3" y1="153.8" x2="20.3" y2="55.7" style="fill: none; stroke: #00AEEF; stroke-width: 0.9592;"/>
	<line x1="307.8" y1="153.2" x2="307.8" y2="55.7" style="fill: none; stroke: #00AEEF; stroke-width: 0.9592;"/>
	<line x1="403.3" y1="153.2" x2="403.3" y2="55.7" style="fill: none; stroke: #00AEEF; stroke-width: 0.9592;"/>
	<line x1="499.1" y1="153.2" x2="499.1" y2="55.7" style="fill: none; stroke: #00AEEF; stroke-width: 0.9592;"/>
	<line x1="594.8" y1="153.2" x2="594.8" y2="55.8" style="fill: none; stroke: #00AEEF; stroke-width: 0.9592;"/>
	<polyline points="19.9,153.1 690.2,153.1 690.4,153.1 690.4,55.7 	" style="fill: none; stroke: #00AEEF; stroke-width: 1.3591;"/>
</g>
<path d="M265.3,105.4c10,0,18.4,9.5,18.4,23.6c0,14.2-8.4,23.6-18.4,23.6c-10.5,0-19.4-8.9-19.4-23.1
	C245.9,115.4,254.8,105.4,265.3,105.4z" style="fill: none; stroke: #00AEEF; stroke-linecap: round; stroke-width: 1.688;"/>
<path d="M283.7,105.4v39.4v0.5c0.5,5.3,2.6,7.3,6.3,7.3c11.5,0.5,16.3-17.3,18.4-23.6" style="fill: none; stroke: #00AEEF; stroke-linecap: round; stroke-width: 1.688;"/>
<path d="M327.5,105.8c10.5,0,18.9,10.4,18.9,23.4s-8.4,23.4-18.9,23.4s-18.9-10.4-18.9-23.4S317,105.8,327.5,105.8z" style="fill: none; stroke: #00AEEF; stroke-linecap: round; stroke-width: 1.6806;"/>
<path d="M281,118.6c1.3,3.1,2,6.7,2,10.6c0,13.3-8.1,22.1-17.7,22.1c-10.1,0-18.7-8.4-18.7-21.7
	c0-13.1,8.6-22.5,18.7-22.5c6.5,0,12.3,4.1,15.4,10.8" style="fill: none; stroke: #282829; stroke-linecap: round; stroke-linejoin: round; stroke-miterlimit: 10; stroke-width: 4.7553;"/>
<path d="M283.7,107.1v36.3v0.5c0.5,5.3,2.6,7.3,6.3,7.3c11.5,0.5,16.3-15.9,18.4-22.2" style="fill: none; stroke: #282829; stroke-linecap: round; stroke-linejoin: round; stroke-miterlimit: 10; stroke-width: 5;"/>
<path d="M340.6,113.9c3,4,4.8,9.3,4.8,15.3c0,12.3-8,22.2-17.9,22.2s-17.9-9.9-17.9-22.2s7.9-22.2,17.9-22.2
	c4.9,0,9.4,2.4,12.6,6.4" style="fill: none; stroke: #282829; stroke-linecap: round; stroke-linejoin: round; stroke-miterlimit: 10; stroke-width: 4.7239;"/>
</svg>
