

<svg version="1.1" id="Layer_1" xmlns="http://www.w3.org/2000/svg" xmlns:xlink="http://www.w3.org/1999/xlink" x="0px" y="0px" viewBox="20 55 670 100" style="enable-background:new 0 0 720 207.5;" xml:space="preserve">

<g>
	<line x1="19.9" y1="128.5" x2="690.2" y2="128.5" style="fill: none; stroke: #00AEEF; stroke-width: 0.6884;"/>
	<line x1="19.9" y1="104.4" x2="690.2" y2="104.4" style="fill: none; stroke: #00AEEF; stroke-width: 0.6884;"/>
	<line x1="19.9" y1="80.4" x2="690.2" y2="80.4" style="fill: none; stroke: #00AEEF; stroke-width: 0.6884;"/>
	<line x1="19.9" y1="55.1" x2="690.4" y2="55.1" style="fill: none; stroke: #00AEEF; stroke-width: 1.3591;"/>
	<line x1="116.2" y1="152.6" x2="116.2" y2="55.1" style="fill: none; stroke: #00AEEF; stroke-width: 0.9592;"/>
	<line x1="212" y1="152.6" x2="212" y2="55.1" style="fill: none; stroke: #00AEEF; stroke-width: 0.9592;"/>
	<line x1="20.3" y1="153.2" x2="20.3" y2="55.1" style="fill: none; stroke: #00AEEF; stroke-width: 0.9592;"/>
	<line x1="307.8" y1="152.6" x2="307.8" y2="55.1" style="fill: none; stroke: #00AEEF; stroke-width: 0.9592;"/>
	<line x1="403.3" y1="152.6" x2="403.3" y2="55.1" style="fill: none; stroke: #00AEEF; stroke-width: 0.9592;"/>
	<line x1="499.1" y1="152.6" x2="499.1" y2="55.1" style="fill: none; stroke: #00AEEF; stroke-width: 0.9592;"/>
	<line x1="594.8" y1="152.6" x2="594.8" y2="55.2" style="fill: none; stroke: #00AEEF; stroke-width: 0.9592;"/>
	<polyline points="19.9,152.5 690.2,152.5 690.4,152.5 690.4,55.1 	" style="fill: none; stroke: #00AEEF; stroke-width: 1.3591;"/>
</g>
<line x1="344.5" y1="82.3" x2="330.9" y2="74.9" style="fill: none; stroke: #00AEEF; stroke-linecap: round; stroke-width: 1.6938;"/>
<path d="M308,136.2c-9.1,10.9-14.3,16.9-25.9,15.4c-9.5-1.1-18.4-9.8-18.4-23.5c-0.5-17.5,15.7-30.9,28.9-18.8" style="fill: none; stroke: #00AEEF; stroke-linecap: round; stroke-width: 1.6938;"/>
<path d="M308,136.2c-9.1,10.9-14.8,15-25.9,14.2c-9.5-1.1-18.4-7.1-18.4-20.8c-0.5-17.5,15.7-30.9,28.9-18.8" style="fill: none; stroke: #282829; stroke-linecap: round; stroke-linejoin: round; stroke-miterlimit: 10; stroke-width: 4.682;"/>
<line x1="344.5" y1="82.3" x2="330.9" y2="74.9" style="fill: none; stroke: #282829; stroke-linecap: round; stroke-linejoin: round; stroke-miterlimit: 10; stroke-width: 5;"/>
<polyline points="321.2,92 329.6,84.6 338,92 " style="fill: none; stroke: #00AEEF; stroke-linecap: round; stroke-width: 1.6938;"/>
<polyline points="321.2,92 329.6,84.6 338,92 " style="fill: none; stroke: #282829; stroke-linecap: round; stroke-linejoin: round; stroke-miterlimit: 10; stroke-width: 4.682;"/>
<g>
	<path d="M422.6,104.8v29.9c0,4.2,0,16.9,7.9,17.5c7.9,0,13.1-9,17.8-21.7" style="fill: none; stroke: #00AEEF; stroke-linecap: round; stroke-width: 1.6938;"/>
	<path d="M327.1,104.8c10.5,0,18.9,9.5,18.9,23.8c0,14.3-8.4,23.8-18.9,23.8c-10,0-19.4-9-19.4-23.3
		C307.7,114.3,317.2,104.8,327.1,104.8z" style="fill: none; stroke: #00AEEF; stroke-linecap: round; stroke-width: 1.691;"/>
	<path d="M345.9,104.9v39.4v0.5c0,5.3,2.1,6.9,5.8,7.4c10,0.5,15.9-9.1,21.6-20.7c5.8-11,8.6-18.9,11.4-26.8v30.1
		c0,4.2,1.1,16.8,11.5,17.4c8.4,0,16.8-10,22.1-22.7c1.6-3.7,4.3-17.6,4.3-24.3" style="fill: none; stroke: #00AEEF; stroke-linecap: round; stroke-width: 1.6885;"/>
</g>
<g>
	<path d="M422.6,106.6v26.3c0,4.2,0,16.9,7.9,17.5c7.9,0,13.1-7.2,17.8-19.9" style="fill: none; stroke: #282829; stroke-linecap: round; stroke-linejoin: round; stroke-miterlimit: 10; stroke-width: 5;"/>
	<path d="M342.6,117.3c1.4,3.2,2.2,7.1,2.2,11.4c0,13.4-7.9,22.3-17.7,22.3c-9.3,0-18.1-8.4-18.1-21.8
		c-0.1-13.9,8.8-22.8,18.1-22.8c6.6,0,12.3,4,15.4,10.7" style="fill: none; stroke: #282829; stroke-linecap: round; stroke-linejoin: round; stroke-miterlimit: 10; stroke-width: 4.682;"/>
	<path d="M345.9,106.5v36v0.5c0,5.3,2.1,6.9,5.8,7.4c10,0.5,15.9-7.3,21.6-18.9c5.8-11,8.6-17.1,11.4-25V133
		c0,4.2,1.1,16.8,11.5,17.4c8.4,0,16.8-8.2,22.1-20.9c1.6-3.7,4.3-15.8,4.3-22.5" style="fill: none; stroke: #282829; stroke-linecap: round; stroke-linejoin: round; stroke-miterlimit: 10; stroke-width: 5;"/>
</g>
</svg>
