

<svg version="1.1" id="Layer_1" xmlns="http://www.w3.org/2000/svg" xmlns:xlink="http://www.w3.org/1999/xlink" x="0px" y="0px" viewBox="20 55 670 100" style="enable-background:new 0 0 720 207.5;" xml:space="preserve">

<g>
	<line x1="19.9" y1="128.5" x2="690.2" y2="128.5" style="fill: none; stroke: #00AEEF; stroke-width: 0.6884;"/>
	<line x1="19.9" y1="104.4" x2="690.2" y2="104.4" style="fill: none; stroke: #00AEEF; stroke-width: 0.6884;"/>
	<line x1="19.9" y1="80.4" x2="690.2" y2="80.4" style="fill: none; stroke: #00AEEF; stroke-width: 0.6884;"/>
	<line x1="19.9" y1="55.1" x2="690.4" y2="55.1" style="fill: none; stroke: #00AEEF; stroke-width: 1.3591;"/>
	<line x1="116.2" y1="152.6" x2="116.2" y2="55.1" style="fill: none; stroke: #00AEEF; stroke-width: 0.9592;"/>
	<line x1="212" y1="152.6" x2="212" y2="55.1" style="fill: none; stroke: #00AEEF; stroke-width: 0.9592;"/>
	<line x1="20.3" y1="153.2" x2="20.3" y2="55.1" style="fill: none; stroke: #00AEEF; stroke-width: 0.9592;"/>
	<line x1="307.8" y1="152.6" x2="307.8" y2="55.1" style="fill: none; stroke: #00AEEF; stroke-width: 0.9592;"/>
	<line x1="403.3" y1="152.6" x2="403.3" y2="55.1" style="fill: none; stroke: #00AEEF; stroke-width: 0.9592;"/>
	<line x1="499.1" y1="152.6" x2="499.1" y2="55.1" style="fill: none; stroke: #00AEEF; stroke-width: 0.9592;"/>
	<line x1="594.8" y1="152.6" x2="594.8" y2="55.2" style="fill: none; stroke: #00AEEF; stroke-width: 0.9592;"/>
	<polyline points="19.9,152.5 690.2,152.5 690.4,152.5 690.4,55.1 	" style="fill: none; stroke: #00AEEF; stroke-width: 1.3591;"/>
</g>
<path d="M308.3,128.3c-5.8,12.7-11,24.4-18.9,23.9c-6.3-0.5-7.9-6.4-7.9-14.3v-16.4c0-14.3-6.3-16.1-10.5-16.6
	c-4.7-1.1-6.5,1.3-14.4,0.2c-3.2,0-6.5-1.1-8.3-2.9c-2.2-2.2-4.1-5.7-2-8.9c1.1-1.6,4.2-1.6,6.8,0.5c2.1,2.1,4.6,6.4,4.6,9.1
	c1.1,10.1-6.7,36.6-14.6,49.3" style="fill: none; stroke: #00AEEF; stroke-linecap: round; stroke-width: 1.6938;"/>
<path d="M308.3,128.3c-5.8,12.7-11,22.8-18.9,22.3c-6.3-0.5-7.9-6.4-7.9-14.3v-13.6c0-14.3-6.3-16.1-10.5-16.6
	c-4.7-1.1-6.5,0.1-14.4-1c-3.2,0-6.5-1.1-8.3-2.9c-2.2-2.2-4.1-5.7-2-8.9c1.1-1.6,4.2-1.6,6.8,0.5c2.1,2.1,4.6,6.4,4.6,9.1
	c1.1,10.1-6,35-13.9,47.7" style="fill: none; stroke: #282829; stroke-linecap: round; stroke-linejoin: round; stroke-miterlimit: 10; stroke-width: 4.682;"/>
<g>
	<path d="M422.5,104.7v29.9c0,4.2,0,16.9,7.9,17.5c7.9,0,13.1-9,17.8-21.7" style="fill: none; stroke: #00AEEF; stroke-linecap: round; stroke-width: 1.6938;"/>
	<path d="M327,104.7c10.5,0,18.9,9.5,18.9,23.8s-8.4,23.8-18.9,23.8c-10,0-19.4-9-19.4-23.3
		C307.6,114.2,317.1,104.7,327,104.7z" style="fill: none; stroke: #00AEEF; stroke-linecap: round; stroke-width: 1.691;"/>
	<path d="M345.8,104.8v39.4v0.5c0,5.3,2.1,6.9,5.8,7.4c10,0.5,15.9-9.1,21.6-20.7c5.8-11,8.6-18.9,11.4-26.8v30.1
		c0,4.2,1.1,16.8,11.5,17.4c8.4,0,16.8-10,22.1-22.7c1.6-3.7,4.3-17.6,4.3-24.3" style="fill: none; stroke: #00AEEF; stroke-linecap: round; stroke-width: 1.6885;"/>
</g>
<g>
	<path d="M422.5,106.5v26.3c0,4.2,0,16.9,7.9,17.5c7.9,0,13.1-7.2,17.8-19.9" style="fill: none; stroke: #282829; stroke-linecap: round; stroke-linejoin: round; stroke-miterlimit: 10; stroke-width: 5;"/>
	<path d="M342.1,116.4c1.6,3.4,2.6,7.4,2.6,12c0,13.4-7.9,22.3-17.7,22.3c-9.3,0-18.1-8.4-18.1-21.8
		c-0.1-13.8,8.8-22.7,18.1-22.7c6.3,0,11.9,3.7,15,10" style="fill: none; stroke: #282829; stroke-linecap: round; stroke-linejoin: round; stroke-miterlimit: 10; stroke-width: 4.682;"/>
	<path d="M345.8,106.4v36v0.5c0,5.3,2.1,6.9,5.8,7.4c10,0.5,15.9-7.3,21.6-18.9c5.8-11,8.6-17.1,11.4-25v26.5
		c0,4.2,1.1,16.8,11.5,17.4c8.4,0,16.8-8.2,22.1-20.9c1.6-3.7,4.3-15.8,4.3-22.5" style="fill: none; stroke: #282829; stroke-linecap: round; stroke-linejoin: round; stroke-miterlimit: 10; stroke-width: 5;"/>
</g>
</svg>
