

<svg version="1.1" id="Layer_1" xmlns="http://www.w3.org/2000/svg" xmlns:xlink="http://www.w3.org/1999/xlink" x="0px" y="0px" viewBox="20 55 670 100" style="enable-background:new 0 0 720 207.5;" xml:space="preserve">

<g>
	<line x1="19.9" y1="129" x2="690.2" y2="129" style="fill: none; stroke: #00AEEF; stroke-width: 0.6884;"/>
	<line x1="19.9" y1="104.9" x2="690.2" y2="104.9" style="fill: none; stroke: #00AEEF; stroke-width: 0.6884;"/>
	<line x1="19.9" y1="80.9" x2="690.2" y2="80.9" style="fill: none; stroke: #00AEEF; stroke-width: 0.6884;"/>
	<line x1="19.9" y1="55.6" x2="690.4" y2="55.6" style="fill: none; stroke: #00AEEF; stroke-width: 1.3591;"/>
	<line x1="116.2" y1="153.1" x2="116.2" y2="55.6" style="fill: none; stroke: #00AEEF; stroke-width: 0.9592;"/>
	<line x1="212" y1="153.1" x2="212" y2="55.6" style="fill: none; stroke: #00AEEF; stroke-width: 0.9592;"/>
	<line x1="20.3" y1="153.7" x2="20.3" y2="55.6" style="fill: none; stroke: #00AEEF; stroke-width: 0.9592;"/>
	<line x1="307.8" y1="153.1" x2="307.8" y2="55.6" style="fill: none; stroke: #00AEEF; stroke-width: 0.9592;"/>
	<line x1="403.3" y1="153.1" x2="403.3" y2="55.6" style="fill: none; stroke: #00AEEF; stroke-width: 0.9592;"/>
	<line x1="499.1" y1="153.1" x2="499.1" y2="55.6" style="fill: none; stroke: #00AEEF; stroke-width: 0.9592;"/>
	<line x1="594.8" y1="153.1" x2="594.8" y2="55.7" style="fill: none; stroke: #00AEEF; stroke-width: 0.9592;"/>
	<polyline points="19.9,153 690.2,153 690.4,153 690.4,55.6 	" style="fill: none; stroke: #00AEEF; stroke-width: 1.3591;"/>
</g>
<polyline points="283.2,92.4 291.6,85 300,92.4 " style="fill: none; stroke: #00AEEF; stroke-linecap: round; stroke-width: 1.6938;"/>
<polyline points="283.2,92.4 291.6,85 300,92.4 " style="fill: none; stroke: #282829; stroke-linecap: round; stroke-linejoin: round; stroke-miterlimit: 10; stroke-width: 4.682;"/>
<g>
	<path d="M384.7,105.2v29.9c0,4.2,0,16.9,7.9,17.5c7.9,0,13.1-9,17.8-21.7" style="fill: none; stroke: #00AEEF; stroke-linecap: round; stroke-width: 1.6938;"/>
	<path d="M289.1,105.2c10.5,0,18.9,9.5,18.9,23.8s-8.4,23.8-18.9,23.8c-10,0-19.4-9-19.4-23.3
		C269.7,114.7,279.2,105.2,289.1,105.2z" style="fill: none; stroke: #00AEEF; stroke-linecap: round; stroke-width: 1.691;"/>
	<path d="M308,105.3v39.4v0.5c0,5.3,2.1,6.9,5.8,7.4c10,0.5,15.9-9.1,21.6-20.7c5.8-11,8.6-18.9,11.4-26.8v30.1
		c0,4.2,1.1,16.8,11.5,17.4c8.4,0,16.8-10,22.1-22.7c1.6-3.7,4.3-17.6,4.3-24.3" style="fill: none; stroke: #00AEEF; stroke-linecap: round; stroke-width: 1.6885;"/>
</g>
<g>
	<path d="M384.7,107v26.3c0,4.2,0,16.9,7.9,17.5c7.9,0,13.1-7.2,17.8-19.9" style="fill: none; stroke: #282829; stroke-linecap: round; stroke-linejoin: round; stroke-miterlimit: 10; stroke-width: 5;"/>
	<path d="M304.2,116.7c1.7,3.4,2.6,7.5,2.6,12.1c0,13.4-7.9,22.3-17.7,22.3c-9.3,0-18.1-8.4-18.1-21.8
		c-0.1-13.8,8.8-22.7,18.1-22.7c6.3,0,11.7,3.6,14.9,9.7" style="fill: none; stroke: #282829; stroke-linecap: round; stroke-linejoin: round; stroke-miterlimit: 10; stroke-width: 4.682;"/>
	<path d="M308,106.9v36v0.5c0,5.3,2.1,6.9,5.8,7.4c10,0.5,15.9-7.3,21.6-18.9c5.8-11,8.6-17.1,11.4-25v26.5
		c0,4.2,1.1,16.8,11.5,17.4c8.4,0,16.8-8.2,22.1-20.9c1.6-3.7,4.3-15.8,4.3-22.5" style="fill: none; stroke: #282829; stroke-linecap: round; stroke-linejoin: round; stroke-miterlimit: 10; stroke-width: 5;"/>
</g>
</svg>
